<?xml version="1.0" encoding="utf-8"?>
<!-- Generator: Adobe Illustrator 22.1.0, SVG Export Plug-In . SVG Version: 6.00 Build 0)  -->
<svg version="1.1" id="Calque_1" xmlns="http://www.w3.org/2000/svg" xmlns:xlink="http://www.w3.org/1999/xlink" x="0px" y="0px"
	 viewBox="0 0 93.7 39.3" style="enable-background:new 0 0 93.7 39.3;" xml:space="preserve">
<style type="text/css">
	.st0{fill:#888888;}
	.st1{enable-background:new    ;}
	.st2{fill:#C1EBFB;}
	.st3{fill:#FFFFFF;}
	.st4{fill:none;}
</style>
<g id="Fractures">
</g>
<g id="DATAC">
	<polygon class="st0" points="45,27.4 50.6,27.4 61.7,3.8 56.4,3.8 	"/>
	<g class="st1">
		<path class="st2" d="M0,6.5h11c3.3,0,5.6,1.1,7,3.4s2.1,5.6,2.1,9.9c0,4.4-0.8,7.7-2.3,9.9S14,33,11,33H0V6.5z M10.5,29.1
			c1.8,0,3-0.8,3.9-2.4c0.8-1.6,1.2-3.9,1.2-6.9c0-2.4-0.2-4.3-0.5-5.6c-0.4-1.3-0.9-2.3-1.6-2.8c-0.7-0.6-1.7-0.8-2.9-0.8H4.4v18.6
			h6.1V29.1z"/>
		<path class="st2" d="M31,6.5h5.6l8.6,26.6h-4.6l-2.1-6.3h-9.6l-2,6.3h-4.6L31,6.5z M37.4,22.8l-3.7-12.5L30,22.8H37.4z"/>
	</g>
	<g class="st1">
		<path class="st2" d="M80.1,32.2c-1.3-0.7-2.4-2-3.1-4s-1.1-4.8-1.1-8.5c0-3.5,0.4-6.3,1.1-8.2c0.7-2,1.8-3.3,3.2-4.1
			c1.4-0.8,3.2-1.1,5.4-1.1c1.4,0,2.9,0.1,4.3,0.3c1.5,0.2,2.7,0.5,3.7,0.8v3.4c-0.7-0.1-1.7-0.3-3.1-0.4s-2.7-0.2-4.1-0.2
			c-1.6,0-2.8,0.2-3.7,0.7c-0.9,0.5-1.5,1.4-1.9,2.8c-0.4,1.3-0.6,3.3-0.6,6s0.2,4.7,0.5,6c0.4,1.3,1,2.3,1.8,2.8s2.1,0.8,3.7,0.8
			c2.7,0,5.1-0.1,7.2-0.4v3.4c-2.2,0.6-4.9,1-8.2,1C83.3,33.3,81.5,32.9,80.1,32.2z"/>
	</g>
	<rect x="49.8" y="0" class="st2" width="18.3" height="3.8"/>
	<path class="st3" d="M73.7,27.8"/>
	<path class="st3" d="M56.2,39.3"/>
	<g>
		<polygon class="st4" points="62.8,25 60.5,30.1 68.3,30.1 68.4,30.1 65.4,21.1 65.1,20.1 62.9,24.8 		"/>
		<polygon class="st2" points="66.3,13.7 63.4,9.2 60.1,9.2 64,13.7 		"/>
		<g>
			<polygon class="st4" points="62.8,25 60.5,30.1 68.3,30.1 68.4,30.1 65.4,21.1 65.1,20.1 62.9,24.8 			"/>
			<polyline class="st2" points="60.4,30.1 58.8,33.6 60.4,33.6 60.4,33.6 69,33.6 70.8,39.2 75,39.2 67.2,15.4 67.2,15.4 65,20.1 
				65.3,21.1 68.3,30.1 68.2,30.1 			"/>
			<polygon class="st0" points="65.1,20.1 67.3,15.4 67.3,15.4 62,15.4 50.6,39.3 56.2,39.3 58.8,33.6 62.9,24.8 			"/>
		</g>
	</g>
</g>
</svg>
